<?xml version="1.0" encoding="UTF-8" standalone="no"?>
<svg
   xmlns:dc="http://purl.org/dc/elements/1.1/"
   xmlns:cc="http://creativecommons.org/ns#"
   xmlns:rdf="http://www.w3.org/1999/02/22-rdf-syntax-ns#"
   xmlns:svg="http://www.w3.org/2000/svg"
   xmlns="http://www.w3.org/2000/svg"
   xmlns:sodipodi="http://sodipodi.sourceforge.net/DTD/sodipodi-0.dtd"
   xmlns:inkscape="http://www.inkscape.org/namespaces/inkscape"
   width="48"
   height="48"
   viewBox="0 0 48 48"
   version="1.1"
   id="svg1057"
   sodipodi:docname="settings_48.svg"
   inkscape:version="1.0.2 (e86c870879, 2021-01-15, custom)">
  <defs
     id="defs1051">
    <clipPath
       clipPathUnits="userSpaceOnUse"
       id="clipPath538">
      <path
         d="m 780,454 h 24 v -24 h -24 z"
         id="path536" />
    </clipPath>
  </defs>
  <sodipodi:namedview
     id="base"
     pagecolor="#ffffff"
     bordercolor="#666666"
     borderopacity="1.0"
     inkscape:pageopacity="0.0"
     inkscape:pageshadow="2"
     inkscape:zoom="11.3"
     inkscape:cx="12.9"
     inkscape:cy="18.8"
     inkscape:document-units="px"
     inkscape:current-layer="layer1"
     inkscape:document-rotation="0"
     showgrid="true"
     units="px">
    <inkscape:grid
       type="xygrid"
       id="grid1087" />
  </sodipodi:namedview>
  <metadata
     id="metadata1054">
    <rdf:RDF>
      <cc:Work
         rdf:about="">
        <dc:format>image/svg+xml</dc:format>
        <dc:type
           rdf:resource="http://purl.org/dc/dcmitype/StillImage" />
        <dc:title></dc:title>
      </cc:Work>
    </rdf:RDF>
  </metadata>
  <g
     inkscape:label="Layer 1"
     inkscape:groupmode="layer"
     id="layer1">
    <path
       id="path13-3-2"
       style="fill:#333333;fill-opacity:1;stroke:none;stroke-width:0.34px;stroke-linecap:butt;stroke-linejoin:miter;stroke-opacity:1"
       d="m 31,13 -2,2 H 11 v 2 h 18 l 2,2 h 2 l 2,-2 h 2 v -2 h -2 l -2,-2 z m 0,2 h 2 v 2 h -2 z m -8,6 -2,2 H 11 v 2 h 10 l 2,2 h 2 l 2,-2 H 37 V 23 H 27 l -2,-2 z m 0,2 h 2 v 2 h -2 z m -8,6 -2,2 h -2 v 2 h 2 l 2,2 h 2 l 2,-2 H 37 V 31 H 19 l -2,-2 z m 0,2 h 2 v 2 h -2 z" />
  </g>
</svg>
