<?xml version="1.0" encoding="UTF-8" standalone="no"?>
<svg
   xmlns:dc="http://purl.org/dc/elements/1.1/"
   xmlns:cc="http://creativecommons.org/ns#"
   xmlns:rdf="http://www.w3.org/1999/02/22-rdf-syntax-ns#"
   xmlns:svg="http://www.w3.org/2000/svg"
   xmlns="http://www.w3.org/2000/svg"
   xmlns:sodipodi="http://sodipodi.sourceforge.net/DTD/sodipodi-0.dtd"
   xmlns:inkscape="http://www.inkscape.org/namespaces/inkscape"
   width="32"
   height="32"
   viewBox="0 0 32 32"
   version="1.1"
   id="svg1057"
   sodipodi:docname="source_32.svg"
   inkscape:version="1.0.2 (e86c870879, 2021-01-15, custom)">
  <defs
     id="defs1051">
    <clipPath
       clipPathUnits="userSpaceOnUse"
       id="clipPath538">
      <path
         d="m 780,454 h 24 v -24 h -24 z"
         id="path536" />
    </clipPath>
  </defs>
  <sodipodi:namedview
     id="base"
     pagecolor="#ffffff"
     bordercolor="#666666"
     borderopacity="1.0"
     inkscape:pageopacity="0.0"
     inkscape:pageshadow="2"
     inkscape:zoom="44.8"
     inkscape:cx="17.7"
     inkscape:cy="15.9"
     inkscape:document-units="px"
     inkscape:current-layer="layer1"
     inkscape:document-rotation="0"
     showgrid="true"
     units="px">
    <inkscape:grid
       type="xygrid"
       id="grid1087" />
  </sodipodi:namedview>
  <metadata
     id="metadata1054">
    <rdf:RDF>
      <cc:Work
         rdf:about="">
        <dc:format>image/svg+xml</dc:format>
        <dc:type
           rdf:resource="http://purl.org/dc/dcmitype/StillImage" />
        <dc:title />
      </cc:Work>
    </rdf:RDF>
  </metadata>
  <g
     inkscape:label="Layer 1"
     inkscape:groupmode="layer"
     id="layer1">
    <path
       d="m 17,11 v 2 h 4 c 2,0 3,1 3,3 0,2 -1,3 -3,3 h -4 v 2 h 4 c 3,0 5,-2 5,-5 0,-3 -2,-5 -5,-5 z m -5,6 h 8 v -2 h -8 z m -1,-4 h 4 v -2 h -4 c -3,0 -5,2 -5,5 0,3 2,5 5,5 h 4 V 19 H 11 C 9,19 8,18 8,16 8,14 9,13 11,13 Z"
       style="fill:#333333;fill-opacity:1;fill-rule:nonzero;stroke:none"
       id="path528"
       sodipodi:nodetypes="ccsssccsscccccccsccsssccscs" />
  </g>
</svg>
