<?xml version="1.0" encoding="UTF-8" standalone="no"?>
<svg
   xmlns:dc="http://purl.org/dc/elements/1.1/"
   xmlns:cc="http://creativecommons.org/ns#"
   xmlns:rdf="http://www.w3.org/1999/02/22-rdf-syntax-ns#"
   xmlns:svg="http://www.w3.org/2000/svg"
   xmlns="http://www.w3.org/2000/svg"
   xmlns:sodipodi="http://sodipodi.sourceforge.net/DTD/sodipodi-0.dtd"
   xmlns:inkscape="http://www.inkscape.org/namespaces/inkscape"
   width="48"
   height="48"
   viewBox="0 0 48 48"
   version="1.1"
   id="svg1057"
   inkscape:version="1.0.2 (e86c870879, 2021-01-15, custom)"
   sodipodi:docname="visibility_off_32'.svg">
  <defs
     id="defs1051" />
  <sodipodi:namedview
     id="base"
     pagecolor="#ffffff"
     bordercolor="#666666"
     borderopacity="1.0"
     inkscape:pageopacity="0.0"
     inkscape:pageshadow="2"
     inkscape:zoom="5.65"
     inkscape:cx="26.3"
     inkscape:cy="25.7"
     inkscape:document-units="px"
     inkscape:current-layer="layer1"
     inkscape:document-rotation="0"
     showgrid="true"
     units="px">
    <inkscape:grid
       type="xygrid"
       id="grid1087" />
  </sodipodi:namedview>
  <metadata
     id="metadata1054">
    <rdf:RDF>
      <cc:Work
         rdf:about="">
        <dc:format>image/svg+xml</dc:format>
        <dc:type
           rdf:resource="http://purl.org/dc/dcmitype/StillImage" />
        <dc:title></dc:title>
      </cc:Work>
    </rdf:RDF>
  </metadata>
  <g
     inkscape:label="Layer 1"
     inkscape:groupmode="layer"
     id="layer1">
    <path
       id="path132"
       style="fill:#333333;fill-opacity:1;fill-rule:nonzero;stroke:none"
       d="M 16 14 L 14 16 L 17.2 19.2 C 15.4 20.4 14 22.1 13 24 C 15 28 19 31 24 31 C 25.5 31 26.9 30.7 28.2 30.2 L 32 34 L 34 32 L 30.8 28.8 L 28.4 26.4 L 26.9 24.9 L 23.1 21.1 L 21.6 19.6 L 19.8 17.8 L 16 14 z M 24 17 C 23.1 17 22.2 17.1 21.3 17.3 L 23.1 19.1 C 23.4 19 23.7 19 24 19 C 27 19 29 21 29 24 C 29 24.3 29 24.6 28.9 24.9 L 32 28 C 33.2 26.9 34.3 25.5 35 24 C 33 20 29 17 24 17 z M 19.6 21.6 L 21.1 23.1 C 21 23.4 21 23.7 21 24 C 21 26 22 27 24 27 C 24.3 27 24.6 27 24.9 26.9 L 26.4 28.4 C 25.7 28.8 24.9 29 24 29 C 21 29 19 27 19 24 C 19 23.1 19.2 22.3 19.6 21.6 z " />
  </g>
</svg>
