<?xml version="1.0" encoding="UTF-8" standalone="no"?>
<svg
   xmlns:dc="http://purl.org/dc/elements/1.1/"
   xmlns:cc="http://creativecommons.org/ns#"
   xmlns:rdf="http://www.w3.org/1999/02/22-rdf-syntax-ns#"
   xmlns:svg="http://www.w3.org/2000/svg"
   xmlns="http://www.w3.org/2000/svg"
   xmlns:sodipodi="http://sodipodi.sourceforge.net/DTD/sodipodi-0.dtd"
   xmlns:inkscape="http://www.inkscape.org/namespaces/inkscape"
   width="32"
   height="32"
   viewBox="0 0 32 32"
   version="1.1"
   id="svg1057"
   inkscape:version="1.0.2 (e86c870879, 2021-01-15, custom)"
   sodipodi:docname="visibility_off_32'.svg">
  <defs
     id="defs1051" />
  <sodipodi:namedview
     id="base"
     pagecolor="#ffffff"
     bordercolor="#666666"
     borderopacity="1.0"
     inkscape:pageopacity="0.0"
     inkscape:pageshadow="2"
     inkscape:zoom="11.3"
     inkscape:cx="20.8"
     inkscape:cy="18.5"
     inkscape:document-units="px"
     inkscape:current-layer="layer1"
     inkscape:document-rotation="0"
     showgrid="true"
     units="px">
    <inkscape:grid
       type="xygrid"
       id="grid1087" />
  </sodipodi:namedview>
  <metadata
     id="metadata1054">
    <rdf:RDF>
      <cc:Work
         rdf:about="">
        <dc:format>image/svg+xml</dc:format>
        <dc:type
           rdf:resource="http://purl.org/dc/dcmitype/StillImage" />
        <dc:title></dc:title>
      </cc:Work>
    </rdf:RDF>
  </metadata>
  <g
     inkscape:label="Layer 1"
     inkscape:groupmode="layer"
     id="layer1">
    <path
       id="path132"
       style="fill:#333333;fill-opacity:1;fill-rule:nonzero;stroke:none"
       d="M 8,6 6,8 9.2,11.2 C 7.4,12.4 6,14.1 5,16 c 2,4 6,7 11,7 1.5,0 2.9,-0.3 4.2,-0.8 L 24,26 26,24 22.8,20.8 20.4,18.4 18.9,16.9 15.1,13.1 13.6,11.6 11.8,9.8 Z m 8,3 c -0.9,0 -1.8,0.1 -2.7,0.3 l 1.8,1.8 C 15.4,11 15.7,11 16,11 c 3,0 5,2 5,5 0,0.3 0,0.6 -0.1,0.9 L 24,20 c 1.2,-1.1 2.3,-2.5 3,-4 C 25,12 21,9 16,9 Z m -4.4,4.6 1.5,1.5 C 13,15.4 13,15.7 13,16 c 0,2 1,3 3,3 0.3,0 0.6,0 0.9,-0.1 l 1.5,1.5 C 17.7,20.8 16.9,21 16,21 c -3,0 -5,-2 -5,-5 0,-0.9 0.2,-1.7 0.6,-2.4 z" />
  </g>
</svg>
